@startuml
'https://plantuml.com/class-diagram
'El titulo podria ser un posible enum

class Coleccion{
    - String titulo
    - String descripcion
    - List<Hecho> hechos

    crearColeccion()
}

abstract class Hecho{
  - Usuario publicador
  - String titulo
  - String descripcion
  - String categoria
  - LocalDateTime fechaHora
  - Lugar lugar
  - Origen origen
}

class HechoDeTexto extends Hecho{}

class HechoMultimedia extends Hecho{
 - ???? contenidoMultimedia
}


abstract class Usuario{
    + void subirHecho(Hecho unHecho)
    + void solicitarBorrarHecho(Hecho unHecho)
}

'Usuarios registrados
class Contribuyente extends Usuario{
    - String nombre
    - String apellido
    - Integer edad
}


'Usuarios anonimos
class Visualizador extends Usuario{
}

class Lugar{
    - String nombre
    - Float latitud
    - Float longitud
    }

class Solicitud{
    - String justificacion
    - ??? estado
}

class Administrador{
   + void crearColeccion(Coleccion unaColeccion)
   + importarHecho(??? archivo)
   + aceptarSolicitud(Solicitud solicitud)
   + eliminarSolicitud(Solicitud solicitud)
}

Hecho --> Usuario
Lugar o-- Hecho
Coleccion -->"*" Hecho
Administrador ..> Solicitud
Administrador ..> Coleccion
@enduml